# xmcd CD database file
#
# Track frame offsets:
#	183
#	12843
#	27920
#	36153
#	58310
#	79325
#	98313
#	114783
#	132363
#	159205
#	171758
#
# Disc length: 2536 seconds
#
# Revision: 0
# Processed by: cddbd v1.5.2PL0 Copyright (c) Steve Scherf et al.
# Submitted via: CDex 1.50
#
DISCID=7b09e60b
DTITLE=SMALLTOWN BLUESBAND - BREAKIN THE RULES
DYEAR=1993
DGENRE=Blues
TTITLE0=Somethings wrong
TTITLE1=Tears of my own
TTITLE2=Breakin the rules
TTITLE3=I dont want to go
TTITLE4=The usual routine
TTITLE5=Wild blood
TTITLE6=Sadie the canadie
TTITLE7=Cant get you off my mind
TTITLE8=Down and out on lovers lane
TTITLE9=She´s mine
TTITLE10=My sweet lady
EXTD=YEAR: 1993
EXTT0=
EXTT1=
EXTT2=
EXTT3=
EXTT4=
EXTT5=
EXTT6=
EXTT7=
EXTT8=
EXTT9=
EXTT10=
PLAYORDER=
